<mxfile host="app.diagrams.net" modified="2024-02-04T10:00:21.163Z" agent="Mozilla/5.0 (X11; Linux x86_64; rv:101.0) Gecko/20100101 Firefox/101.0" etag="dHChNJ55S3y4PS9xQszC" version="23.0.2" type="github">
  <diagram name="第 1 页" id="kpXX1uZpGzhVCskZK_Ff">
    <mxGraphModel dx="551" dy="1144" grid="0" gridSize="10" guides="1" tooltips="1" connect="1" arrows="1" fold="1" page="1" pageScale="1" pageWidth="1100" pageHeight="850" math="0" shadow="0">
      <root>
        <mxCell id="0" />
        <mxCell id="1" parent="0" />
        <mxCell id="cXS16R5JkKt7hnEGMYDl-2" value="&lt;h1&gt;上诉率&lt;br&gt;&lt;/h1&gt;&lt;p style=&quot;line-height: 120%;&quot;&gt;【指标公式】二审新收案件数 / 一审结案数&lt;/p&gt;&lt;p style=&quot;line-height: 120%;&quot;&gt;【指标口径】&lt;/p&gt;&lt;p style=&quot;line-height: 120%;&quot;&gt;二审新收案件数 = 【上级法院+本院（辖区）】二审新收案件数，且二审的原一审案件法院为【本院（辖区）】。&lt;/p&gt;&lt;p style=&quot;line-height: 120%;&quot;&gt;一审结案数 = 同一审裁判被改判率分母&lt;br&gt;&lt;/p&gt;" style="text;html=1;strokeColor=#d79b00;fillColor=#ffe6cc;spacing=5;spacingTop=-20;whiteSpace=wrap;overflow=hidden;rounded=1;" vertex="1" parent="1">
          <mxGeometry x="647" y="-478" width="400" height="220" as="geometry" />
        </mxCell>
        <mxCell id="cXS16R5JkKt7hnEGMYDl-3" value="&lt;h1&gt;一审裁判被改判率&lt;/h1&gt;&lt;p&gt;【指标公式】一审裁判被二审改判数 / 一审结案数&lt;/p&gt;&lt;p&gt;【指标口径】&lt;/p&gt;&lt;p align=&quot;justify&quot;&gt;一审裁判被二审改判数=【上级法院+本院（辖区）】二审已结案件且案件的结案方式为“改判、改判（含变更源判决）、撤销原裁定并指令受（审）理、撤销原判并驳回起诉、委赔（撤销原决定并决定赔偿、变更原决定、撤销原决定并驳回申请、撤销原决定并指令赔偿义务法院作出决定）”。&lt;/p&gt;&lt;p align=&quot;justify&quot;&gt;一审结案数 = 【本院（辖区）】一审已结案件且案件的结案方式不含“移送其他法院管辖、裁定移送其他法院管辖、被上级法院提级管辖、被指定其他法院管辖、移交下级法院管辖”。&lt;br&gt;&lt;/p&gt;" style="text;html=1;strokeColor=#d79b00;fillColor=#ffe6cc;spacing=5;spacingTop=-20;whiteSpace=wrap;overflow=hidden;rounded=1;dashed=1;strokeWidth=1;" vertex="1" parent="1">
          <mxGeometry x="647" y="-238" width="400" height="220" as="geometry" />
        </mxCell>
        <mxCell id="cXS16R5JkKt7hnEGMYDl-4" value="&lt;h1&gt;一审裁判被发回重审率&lt;/h1&gt;&lt;p&gt;【指标公式】一审裁判被二审发回重审数 / 一审结案数&lt;/p&gt;&lt;p&gt;【指标口径】&lt;/p&gt;&lt;p align=&quot;justify&quot;&gt;一审裁判被二审改判数=【上级法院+本院（辖区）】二审已结案件且案件的结案方式为“发回重审”。&lt;/p&gt;&lt;p align=&quot;justify&quot;&gt;一审结案数 = 同一审裁判被改判率分母&lt;br&gt;&lt;/p&gt;" style="text;html=1;strokeColor=#d79b00;fillColor=#ffe6cc;spacing=5;spacingTop=-20;whiteSpace=wrap;overflow=hidden;rounded=1;dashed=1;strokeWidth=1;" vertex="1" parent="1">
          <mxGeometry x="657" y="12" width="400" height="220" as="geometry" />
        </mxCell>
        <mxCell id="cXS16R5JkKt7hnEGMYDl-5" value="&lt;h1&gt;申诉申请再审率&lt;br&gt;&lt;/h1&gt;&lt;p style=&quot;line-height: 120%;&quot;&gt;【指标公式】申诉申请再审新收案件数 / 生效案件数&lt;/p&gt;&lt;p style=&quot;line-height: 120%;&quot;&gt;【指标口径】&lt;/p&gt;&lt;p style=&quot;line-height: 120%;&quot;&gt;申诉申请再审收案数 = 【上级法院+本院（辖区）】申诉申请再审新收案件且案件的原生效裁判为【本院（辖区）】。&lt;/p&gt;&lt;p style=&quot;line-height: 120%;&quot;&gt;生效案件数 = 同生效裁判被改判率分母&lt;br&gt;&lt;/p&gt;" style="text;html=1;strokeColor=#d79b00;fillColor=#ffe6cc;spacing=5;spacingTop=-20;whiteSpace=wrap;overflow=hidden;rounded=1;" vertex="1" parent="1">
          <mxGeometry x="119" y="-508" width="400" height="220" as="geometry" />
        </mxCell>
        <mxCell id="cXS16R5JkKt7hnEGMYDl-6" value="&lt;h1&gt;生效裁判被改判率&lt;br&gt;&lt;/h1&gt;&lt;p style=&quot;line-height: 120%;&quot;&gt;【指标公式】生效裁判被再审改判数 / 生效案件数&lt;/p&gt;&lt;p style=&quot;line-height: 120%;&quot;&gt;【指标口径】&lt;/p&gt;&lt;p style=&quot;line-height: 120%;&quot;&gt;生效裁判被再审改判数 = 【上级法院+本院（辖区）】再审已结案件且案件的结案方式为“改判、撤销原裁定并指令受（审）理、撤销原判并驳回起诉、委赔提（撤销原决定并决定赔偿、变更原决定、撤销原决定并驳回申请）、委赔再（撤销原决定并决定赔偿、变更原决定、撤销原决定并驳回申请）”。&lt;/p&gt;&lt;p style=&quot;line-height: 120%;&quot;&gt;生效案件数 = 一审已结-二审新收+二审已结-二审发回&lt;br&gt;&lt;/p&gt;" style="text;html=1;strokeColor=#d79b00;fillColor=#ffe6cc;spacing=5;spacingTop=-20;whiteSpace=wrap;overflow=hidden;rounded=1;" vertex="1" parent="1">
          <mxGeometry x="115" y="-275" width="400" height="220" as="geometry" />
        </mxCell>
        <mxCell id="cXS16R5JkKt7hnEGMYDl-7" value="&lt;h1&gt;生效裁判被发回重审率&lt;br&gt;&lt;/h1&gt;&lt;p style=&quot;line-height: 120%;&quot;&gt;【指标公式】生效裁判被再审发回重审数 / 生效案件数&lt;/p&gt;&lt;p style=&quot;line-height: 120%;&quot;&gt;【指标口径】&lt;/p&gt;&lt;p style=&quot;line-height: 120%;&quot;&gt;生效裁判被再审发回重审数 = 【上级法院+本院（辖区）】再审已结案件且结案方式为“发回重审”。&lt;/p&gt;&lt;p style=&quot;line-height: 120%;&quot;&gt;生效案件数 = 同生效裁判被改判率分母&lt;br&gt;&lt;/p&gt;" style="text;html=1;strokeColor=#d79b00;fillColor=#ffe6cc;spacing=5;spacingTop=-20;whiteSpace=wrap;overflow=hidden;rounded=1;" vertex="1" parent="1">
          <mxGeometry x="115" y="-29" width="400" height="220" as="geometry" />
        </mxCell>
        <mxCell id="cXS16R5JkKt7hnEGMYDl-8" value="&lt;h1&gt;裁定再审率&lt;br&gt;&lt;/h1&gt;&lt;p style=&quot;line-height: 120%;&quot;&gt;【指标公式】（本院决定再审数 + 本院提审数 + 指令再审数 +指定再审数） / 申诉、申请再审审查案件结案数&lt;br&gt;&lt;/p&gt;&lt;p style=&quot;line-height: 120%;&quot;&gt;【指标口径】&lt;/p&gt;&lt;p style=&quot;line-height: 120%;&quot;&gt;（本院决定再审数 + 本院提审数 + 指令再审数 +指定再审数） = 【上级法院+本院（辖区）】再审审查已结案件且结案方式为“本院再审、本院提审、指令原审法院再审、指定其他法院再审、委赔监（指令下级法院受理、本院决定重新审理、指令重审审理、本院决定直接审理）。&lt;/p&gt;&lt;p style=&quot;line-height: 120%;&quot;&gt;申诉、申请再审审查案件结案数 = 【本院（辖区）】申诉、申请再审审查已结案件。&lt;br&gt;&lt;/p&gt;" style="text;html=1;strokeColor=#d79b00;fillColor=#ffe6cc;spacing=5;spacingTop=-20;whiteSpace=wrap;overflow=hidden;rounded=1;" vertex="1" parent="1">
          <mxGeometry x="329" y="258" width="400" height="220" as="geometry" />
        </mxCell>
      </root>
    </mxGraphModel>
  </diagram>
</mxfile>
